<svg width="43" height="43" viewBox="0 0 43 43" fill="none" xmlns="http://www.w3.org/2000/svg">
<path d="M21.509 42.4799C33.107 42.4799 42.509 33.0779 42.509 21.4799C42.509 9.88197 33.107 0.47995 21.509 0.47995C9.91102 0.47995 0.509003 9.88197 0.509003 21.4799C0.509003 33.0779 9.91102 42.4799 21.509 42.4799Z" fill="black"/>
<path d="M22 20.3203L12.3446 25.9999H31.6554L22.0003 20.3203C22.0003 20.3203 22.0002 20.3203 22 20.3203ZM22 18.3203C22.3506 18.3203 22.7011 18.4124 23.0141 18.5964L32.6694 24.2761C34.4257 25.3092 33.693 28 31.6554 28H12.3446C10.307 28 9.5743 25.3092 11.3306 24.2761L20.986 18.5964C21.2989 18.4124 21.6495 18.3203 22 18.3203Z" fill="white"/>
<path d="M18.707 14.1479C18.7114 13.7133 18.8022 13.2838 18.9742 12.8846C19.1462 12.4854 19.3959 12.1244 19.7088 11.8226C20.0217 11.5209 20.3916 11.2844 20.7968 11.1271C21.202 10.9697 21.6345 10.8945 22.069 10.9059C22.8992 10.9818 23.6758 11.3488 24.2615 11.9421C24.8471 12.5355 25.204 13.3168 25.269 14.1479C25.269 15.6479 22.069 16.8999 22.069 16.8999V19.1769" stroke="white" stroke-width="2"/>
</svg>
