<svg width="27" height="28" viewBox="0 0 27 28" fill="none" xmlns="http://www.w3.org/2000/svg">
<path fill-rule="evenodd" clip-rule="evenodd" d="M24.438 9.55798L26 25.183C26.0124 25.6448 25.8442 26.0933 25.531 26.433C25.4043 26.5982 25.2372 26.7281 25.0458 26.8102C24.8544 26.8924 24.6451 26.9239 24.438 26.902H2.56303C2.35577 26.9241 2.1463 26.8926 1.95472 26.8105C1.76314 26.7284 1.5959 26.5984 1.46903 26.433C1.15589 26.0933 0.987628 25.6448 1.00003 25.183L2.56303 9.55798C2.62156 9.17955 2.80898 8.83294 3.09359 8.57675C3.3782 8.32057 3.74255 8.17052 4.12503 8.15198H7.25003C7.25003 6.49437 7.90851 4.90466 9.08061 3.73256C10.2527 2.56046 11.8424 1.90198 13.5 1.90198C15.1576 1.90198 16.7473 2.56046 17.9194 3.73256C19.0916 4.90466 19.75 6.49437 19.75 8.15198H22.875C23.2577 8.17029 23.6223 8.32024 23.9071 8.57645C24.1919 8.83265 24.3795 9.17939 24.438 9.55798V9.55798ZM16.625 8.15198H10.375C10.375 7.32318 10.7043 6.52832 11.2903 5.94227C11.8764 5.35622 12.6712 5.02698 13.5 5.02698C14.3288 5.02698 15.1237 5.35622 15.7097 5.94227C16.2958 6.52832 16.625 7.32318 16.625 8.15198V8.15198Z" stroke="black" stroke-width="2"/>
</svg>
