<svg width="25" height="25" viewBox="0 0 25 25" fill="none" xmlns="http://www.w3.org/2000/svg">
<g opacity="0.529">
<g opacity="0.529">
<path opacity="0.529" d="M12.5 25C19.4036 25 25 19.4036 25 12.5C25 5.59644 19.4036 0 12.5 0C5.59644 0 0 5.59644 0 12.5C0 19.4036 5.59644 25 12.5 25Z" fill="black"/>
<path opacity="0.529" d="M12.5 24.5C19.1274 24.5 24.5 19.1274 24.5 12.5C24.5 5.87258 19.1274 0.5 12.5 0.5C5.87258 0.5 0.5 5.87258 0.5 12.5C0.5 19.1274 5.87258 24.5 12.5 24.5Z" stroke="black"/>
</g>
<path opacity="0.529" d="M12.687 14.166L7.793 19.073L6.106 17.383L11.001 12.475L6.338 7.79999L8.025 6.10999L12.687 10.784L17.349 6.10999L19.036 7.79999L14.373 12.475L19.268 17.383L17.581 19.073L12.687 14.166Z" fill="white"/>
</g>
</svg>
