<svg width="44" height="45" viewBox="0 0 44 45" fill="none" xmlns="http://www.w3.org/2000/svg">
<path d="M8.53743 25.4629V14.2722C8.53743 11.4537 11.3963 8.89608 15.0527 8.89678L25.1035 8.89678C26.0957 8.89037 27.0792 9.08105 27.997 9.45776C28.9149 9.83448 29.7488 10.3897 30.4503 11.0913C31.1519 11.7928 31.7071 12.6267 32.0838 13.5446C32.4606 14.4624 32.6512 15.4459 32.6448 16.4381L32.6448 25.2727L32.6448 35.6473L27.6484 33.007H16.083C15.0908 33.0134 14.1073 32.8227 13.1895 32.446C12.2716 32.0693 11.4377 31.5141 10.7362 30.8125C10.0346 30.111 9.47937 29.2771 9.10265 28.3592C8.72594 27.4414 8.53526 26.4578 8.54167 25.4657" stroke="black" stroke-width="2"/>
</svg>
