<svg width="34" height="24" viewBox="0 0 34 24" fill="currentColor" xmlns="http://www.w3.org/2000/svg">
<path d="M17 13.9038L4.14499 21.5H29.855L17 13.9038ZM17 11.3231C17.3518 11.3231 17.7037 11.4158 18.0175 11.6012L32.7015 20.2781C34.4539 21.3137 33.7195 24 31.684 24H2.31599C0.280465 24 -0.453903 21.3137 1.29853 20.2781L15.9825 11.6012C16.2964 11.4158 16.6482 11.3231 17 11.3231Z" fill="currentColor"/>
<path d="M12.667 6.113C12.6726 5.549 12.7905 4.99176 13.0136 4.47375C13.2368 3.95573 13.5608 3.4873 13.9667 3.09575C14.3727 2.7042 14.8525 2.39736 15.3783 2.1931C15.904 1.98883 16.4652 1.89124 17.029 1.906C18.1064 2.00422 19.1144 2.48044 19.8745 3.25039C20.6345 4.02035 21.0977 5.03438 21.182 6.113C21.182 8.058 17.029 9.684 17.029 9.684V12.639" stroke="currentColor" stroke-width="2.5"/>
</svg>
