<svg width="26" height="20" viewBox="0 0 26 20" fill="none" xmlns="http://www.w3.org/2000/svg">
<path fill-rule="evenodd" clip-rule="evenodd" d="M23.863 2.205C22.727 1.258 18.176 1.54 13 1.492C8.519 1.449 3.415 1.055 2.07 2.205C-0.645 4.529 13 11.5 13 11.5C13 11.5 26.113 4.08 23.863 2.205ZM1 4C1.00237 3.20508 1.31921 2.4434 1.8813 1.8813C2.4434 1.31921 3.20508 1.00237 4 1L22 1C22.7949 1.00237 23.5566 1.31921 24.1187 1.8813C24.6808 2.4434 24.9976 3.20508 25 4V16C24.9976 16.7949 24.6808 17.5566 24.1187 18.1187C23.5566 18.6808 22.7949 18.9976 22 19H4C3.20508 18.9976 2.4434 18.6808 1.8813 18.1187C1.31921 17.5566 1.00237 16.7949 1 16V4Z" stroke="black" stroke-width="2"/>
</svg>
