<svg width="24" height="19" viewBox="0 0 24 19" fill="none" xmlns="http://www.w3.org/2000/svg">
<path d="M2 4.5H22" stroke="black" stroke-width="3" stroke-linecap="round"/>
<path d="M2 14.5H22" stroke="black" stroke-width="3" stroke-linecap="round"/>
<path d="M9 9C11.4853 9 13.5 6.98528 13.5 4.5C13.5 2.01472 11.4853 0 9 0C6.51472 0 4.5 2.01472 4.5 4.5C4.5 6.98528 6.51472 9 9 9Z" fill="white"/>
<path d="M9 7.75C10.7949 7.75 12.25 6.29493 12.25 4.5C12.25 2.70507 10.7949 1.25 9 1.25C7.20507 1.25 5.75 2.70507 5.75 4.5C5.75 6.29493 7.20507 7.75 9 7.75Z" stroke="black" stroke-width="2.5"/>
<path d="M17 19C19.4853 19 21.5 16.9853 21.5 14.5C21.5 12.0147 19.4853 10 17 10C14.5147 10 12.5 12.0147 12.5 14.5C12.5 16.9853 14.5147 19 17 19Z" fill="white"/>
<path d="M17 17.75C18.7949 17.75 20.25 16.2949 20.25 14.5C20.25 12.7051 18.7949 11.25 17 11.25C15.2051 11.25 13.75 12.7051 13.75 14.5C13.75 16.2949 15.2051 17.75 17 17.75Z" stroke="black" stroke-width="2.5"/>
</svg>
