<svg width="43" height="43" viewBox="0 0 43 43" fill="none" xmlns="http://www.w3.org/2000/svg">
<path d="M21.509 42.4799C33.107 42.4799 42.509 33.0779 42.509 21.4799C42.509 9.88197 33.107 0.47995 21.509 0.47995C9.91102 0.47995 0.509003 9.88197 0.509003 21.4799C0.509003 33.0779 9.91102 42.4799 21.509 42.4799Z" fill="black"/>
<g filter="url(#filter0_d)">
<path fill-rule="evenodd" clip-rule="evenodd" d="M30.246 13.764C29.6961 13.2068 29.0411 12.7645 28.3189 12.4626C27.5967 12.1607 26.8218 12.0052 26.039 12.0052C25.2562 12.0052 24.4813 12.1607 23.7591 12.4626C23.0369 12.7645 22.3819 13.2068 21.832 13.764L21.004 14.592L20.18 13.764C19.064 12.6479 17.5503 12.0209 15.972 12.0209C14.3937 12.0209 12.88 12.6479 11.764 13.764C10.648 14.88 10.021 16.3936 10.021 17.972C10.021 19.5503 10.648 21.0639 11.764 22.18L21.005 31.421L30.246 22.18C30.8031 21.6301 31.2455 20.9751 31.5474 20.2529C31.8493 19.5307 32.0048 18.7557 32.0048 17.973C32.0048 17.1902 31.8493 16.4152 31.5474 15.693C31.2455 14.9708 30.8031 14.3158 30.246 13.766" fill="white"/>
</g>
<defs>
<filter id="filter0_d" x="4.021" y="9.00519" width="33.9838" height="31.4158" filterUnits="userSpaceOnUse" color-interpolation-filters="sRGB">
<feFlood flood-opacity="0" result="BackgroundImageFix"/>
<feColorMatrix in="SourceAlpha" type="matrix" values="0 0 0 0 0 0 0 0 0 0 0 0 0 0 0 0 0 0 127 0"/>
<feOffset dy="3"/>
<feGaussianBlur stdDeviation="3"/>
<feColorMatrix type="matrix" values="0 0 0 0 0 0 0 0 0 0 0 0 0 0 0 0 0 0 0.161 0"/>
<feBlend mode="normal" in2="BackgroundImageFix" result="effect1_dropShadow"/>
<feBlend mode="normal" in="SourceGraphic" in2="effect1_dropShadow" result="shape"/>
</filter>
</defs>
</svg>
