<svg width="30" height="28" viewBox="0 0 30 28" fill="none" xmlns="http://www.w3.org/2000/svg">
<path d="M26.657 3.22902C25.96 2.52294 25.1297 1.96232 24.2143 1.57968C23.2989 1.19704 22.3166 1 21.3245 1C20.3323 1 19.3501 1.19704 18.4347 1.57968C17.5193 1.96232 16.689 2.52294 15.992 3.22902L14.943 4.27502L13.894 3.22902C13.1937 2.52875 12.3624 1.97326 11.4474 1.59427C10.5325 1.21529 9.55183 1.02023 8.5615 1.02023C7.57116 1.02023 6.59052 1.21529 5.67557 1.59427C4.76062 1.97326 3.92927 2.52875 3.229 3.22902C2.52872 3.92929 1.97323 4.76064 1.59425 5.67559C1.21526 6.59054 1.0202 7.57118 1.0202 8.56152C1.0202 9.55186 1.21526 10.5325 1.59425 11.4474C1.97323 12.3624 2.52872 13.1937 3.229 13.894L14.943 25.608L26.657 13.894C27.3631 13.197 27.9237 12.3667 28.3063 11.4513C28.689 10.5359 28.886 9.55367 28.886 8.56152C28.886 7.56937 28.689 6.5871 28.3063 5.67171C27.9237 4.75631 27.3631 3.92602 26.657 3.22902" stroke="black" stroke-width="2"/>
</svg>
