<svg width="29" height="32" viewBox="0 0 29 32" fill="none" xmlns="http://www.w3.org/2000/svg">
<g filter="url(#filter0_d)">
<path fill-rule="evenodd" clip-rule="evenodd" d="M14.5 12C15.0933 12 15.6734 12.1759 16.1667 12.5056C16.6601 12.8352 17.0446 13.3038 17.2716 13.8519C17.4987 14.4001 17.5581 15.0033 17.4424 15.5853C17.3266 16.1672 17.0409 16.7018 16.6213 17.1213C16.2018 17.5409 15.6672 17.8266 15.0853 17.9424C14.5033 18.0581 13.9001 17.9987 13.3519 17.7716C12.8038 17.5446 12.3352 17.1601 12.0056 16.6667C11.6759 16.1734 11.5 15.5933 11.5 15C11.5024 14.2051 11.8192 13.4434 12.3813 12.8813C12.9434 12.3192 13.7051 12.0024 14.5 12ZM14.5 3C13.7051 3.00237 12.9434 3.31921 12.3813 3.8813C11.8192 4.4434 11.5024 5.20508 11.5 6H17.5C17.4976 5.20508 17.1808 4.4434 16.6187 3.8813C16.0566 3.31921 15.2949 3.00237 14.5 3ZM22 24H7C6.20508 23.9976 5.4434 23.6808 4.8813 23.1187C4.31921 22.5566 4.00237 21.7949 4 21V9C4.00237 8.20508 4.31921 7.4434 4.8813 6.8813C5.4434 6.31921 6.20508 6.00237 7 6H8.5C8.5 4.4087 9.13214 2.88258 10.2574 1.75736C11.3826 0.632141 12.9087 0 14.5 0C16.0913 0 17.6174 0.632141 18.7426 1.75736C19.8679 2.88258 20.5 4.4087 20.5 6H22C22.7949 6.00237 23.5566 6.31921 24.1187 6.8813C24.6808 7.4434 24.9976 8.20508 25 9V21C24.9976 21.7949 24.6808 22.5566 24.1187 23.1187C23.5566 23.6808 22.7949 23.9976 22 24Z" fill="black"/>
</g>
<defs>
<filter id="filter0_d" x="0" y="0" width="29" height="32" filterUnits="userSpaceOnUse" color-interpolation-filters="sRGB">
<feFlood flood-opacity="0" result="BackgroundImageFix"/>
<feColorMatrix in="SourceAlpha" type="matrix" values="0 0 0 0 0 0 0 0 0 0 0 0 0 0 0 0 0 0 127 0"/>
<feOffset dy="4"/>
<feGaussianBlur stdDeviation="2"/>
<feColorMatrix type="matrix" values="0 0 0 0 0 0 0 0 0 0 0 0 0 0 0 0 0 0 0.25 0"/>
<feBlend mode="normal" in2="BackgroundImageFix" result="effect1_dropShadow"/>
<feBlend mode="normal" in="SourceGraphic" in2="effect1_dropShadow" result="shape"/>
</filter>
</defs>
</svg>
