<svg width="35" height="33" viewBox="0 0 35 33" fill="none" xmlns="http://www.w3.org/2000/svg">
<g filter="url(#filter0_d)">
<path d="M21.182 3.578L14.563 10.378L11.7 18.606L19.93 15.922L26.549 9.3L21.182 3.578ZM29.591 3.041L27.265 0.715997C27.0616 0.490724 26.8133 0.310636 26.5359 0.187376C26.2586 0.0641161 25.9585 0.000427246 25.655 0.000427246C25.3515 0.000427246 25.0514 0.0641161 24.7741 0.187376C24.4967 0.310636 24.2484 0.490724 24.045 0.715997L22.076 2.684L27.444 8.23L29.591 6.083C29.8117 5.87598 29.9888 5.62688 30.1117 5.35037C30.2347 5.07387 30.3011 4.77555 30.307 4.473C30.2558 3.92292 30.0003 3.412 29.591 3.041Z" fill="black"/>
<path d="M18.198 2.448H7.46701C7.10596 2.58418 6.77574 2.79125 6.49594 3.057C6.25771 3.33089 6.08652 3.65649 5.99594 4.008V21.508C5.99771 22.0024 6.12686 22.488 6.37094 22.918C6.65421 23.2265 7.04515 23.4144 7.46298 23.443H26.306C26.5917 23.4513 26.8709 23.3561 27.092 23.175C27.2417 22.9229 27.3009 22.6273 27.26 22.337V11.856" stroke="black" stroke-width="2"/>
</g>
<defs>
<filter id="filter0_d" x="0.995941" y="0.000427246" width="33.3111" height="32.4431" filterUnits="userSpaceOnUse" color-interpolation-filters="sRGB">
<feFlood flood-opacity="0" result="BackgroundImageFix"/>
<feColorMatrix in="SourceAlpha" type="matrix" values="0 0 0 0 0 0 0 0 0 0 0 0 0 0 0 0 0 0 127 0"/>
<feOffset dy="4"/>
<feGaussianBlur stdDeviation="2"/>
<feColorMatrix type="matrix" values="0 0 0 0 0 0 0 0 0 0 0 0 0 0 0 0 0 0 0.25 0"/>
<feBlend mode="normal" in2="BackgroundImageFix" result="effect1_dropShadow"/>
<feBlend mode="normal" in="SourceGraphic" in2="effect1_dropShadow" result="shape"/>
</filter>
</defs>
</svg>
