<svg width="26" height="25" viewBox="0 0 26 25" fill="currentColor" xmlns="http://www.w3.org/2000/svg">
<path d="M0.960999 25V21.993C0.960999 18.684 6.374 15.977 12.991 15.977C19.608 15.977 25.021 18.684 25.021 21.993V25H0.960999ZM6.975 6.95701C6.9748 5.76736 7.32738 4.60436 7.98815 3.61509C8.64893 2.62582 9.58821 1.8547 10.6872 1.39926C11.7863 0.943816 12.9957 0.824498 14.1625 1.05639C15.3293 1.28829 16.4012 1.86098 17.2425 2.70206C18.0839 3.54313 18.6569 4.61481 18.8892 5.78156C19.1215 6.94832 19.0026 8.15776 18.5475 9.25693C18.0924 10.3561 17.3216 11.2956 16.3326 11.9567C15.3435 12.6178 14.1807 12.9708 12.991 12.971C12.2011 12.9711 11.4189 12.8157 10.6891 12.5135C9.95926 12.2114 9.2961 11.7684 8.73746 11.21C8.17882 10.6515 7.73565 9.9885 7.43325 9.25878C7.13084 8.52905 6.97513 7.74691 6.975 6.95701Z" fill="currentColor"/>
</svg>
