<svg width="22" height="23" viewBox="0 0 22 23" fill="none" xmlns="http://www.w3.org/2000/svg">
<path d="M21.984 20.954L17.421 16.391C18.6916 14.7231 19.3725 12.6807 19.357 10.584C19.3648 9.31081 19.1198 8.04871 18.6362 6.87092C18.1525 5.69313 17.4398 4.62307 16.5395 3.72281C15.6391 2.82255 14.569 2.10999 13.3912 1.62646C12.2133 1.14293 10.9512 0.898045 9.678 0.906011C8.40488 0.898178 7.14287 1.14316 5.96514 1.62675C4.78742 2.11034 3.71741 2.82292 2.81716 3.72317C1.91691 4.62342 1.20433 5.69343 0.720738 6.87115C0.237147 8.04888 -0.00783421 9.31089 -1.02553e-06 10.584C-0.00783421 11.8571 0.237147 13.1191 0.720738 14.2969C1.20433 15.4746 1.91691 16.5446 2.81716 17.4449C3.71741 18.3451 4.78742 19.0577 5.96514 19.5413C7.14287 20.0249 8.40488 20.2698 9.678 20.262C11.7746 20.2775 13.8171 19.5966 15.485 18.326L20.048 22.889L21.984 20.954ZM2.765 10.584C2.75605 9.67369 2.92874 8.77073 3.27298 7.92796C3.61722 7.0852 4.12609 6.31955 4.76981 5.67583C5.41354 5.0321 6.17918 4.52323 7.02195 4.17899C7.86472 3.83475 8.76768 3.66206 9.678 3.67101C10.5883 3.66206 11.4913 3.83475 12.334 4.17899C13.1768 4.52323 13.9425 5.0321 14.5862 5.67583C15.2299 6.31955 15.7388 7.0852 16.083 7.92796C16.4273 8.77073 16.6 9.67369 16.591 10.584C16.6 11.4943 16.4273 12.3973 16.083 13.2401C15.7388 14.0828 15.2299 14.8485 14.5862 15.4922C13.9425 16.1359 13.1768 16.6448 12.334 16.989C11.4913 17.3333 10.5883 17.506 9.678 17.497C8.76768 17.506 7.86472 17.3333 7.02195 16.989C6.17918 16.6448 5.41354 16.1359 4.76981 15.4922C4.12609 14.8485 3.61722 14.0828 3.27298 13.2401C2.92874 12.3973 2.75605 11.4943 2.765 10.584Z" fill="black"/>
</svg>
