<svg width="25" height="27" viewBox="0 0 25 27" fill="none" xmlns="http://www.w3.org/2000/svg">
<path d="M12.5481 2.41806C11.7465 2.88054 10.5685 3.40985 8.89785 3.84946C6.88172 4.38001 4.0905 4.79519 2.21927 5.03839C2.62002 7.93901 3.62183 13.503 5.75504 17.2717C7.21548 19.8519 9.26606 21.6117 10.7291 22.6337C11.62 23.256 12.4108 23.6908 12.946 23.9576C13.4851 23.6919 14.2814 23.2576 15.1703 22.6353C17.7938 20.7982 19.2306 18.7329 19.9739 17.3238C21.9681 13.5432 22.6598 7.90609 22.8908 5.04396C21.0804 4.80172 18.337 4.38407 16.3054 3.84946C14.5979 3.40014 13.3764 2.86831 12.5481 2.41806ZM12.5 0C12.5 0 13.6894 1.09298 16.8144 1.91531C19.9394 2.73765 25 3.28936 25 3.28936C25 3.28936 24.7577 12.5414 21.7428 18.2569C18.728 23.9724 12.9405 26.1514 12.9405 26.1514C12.9405 26.1514 7.24965 23.9724 4.01452 18.2569C0.77939 12.5414 0 3.28936 0 3.28936C0 3.28936 5.26389 2.73765 8.38888 1.91531C11.5139 1.09298 12.5 0 12.5 0Z" fill="black"/>
</svg>
