<svg width="26" height="25" viewBox="0 0 26 25" fill="none" xmlns="http://www.w3.org/2000/svg">
    <path fill-rule="evenodd" clip-rule="evenodd" d="M22.657 8.35602L24.042 22.211C24.0528 22.6204 23.9036 23.0179 23.626 23.319C23.5134 23.4656 23.3652 23.5809 23.1953 23.6537C23.0255 23.7266 22.8397 23.7546 22.656 23.735H3.25997C3.0762 23.7546 2.89049 23.7266 2.72064 23.6537C2.55079 23.5809 2.40249 23.4656 2.28997 23.319C2.01272 23.0178 1.86384 22.6203 1.87497 22.211L3.25997 8.35602C3.31172 8.0202 3.47798 7.71259 3.73058 7.48533C3.98317 7.25807 4.30657 7.12512 4.64597 7.10902H7.41697C7.41697 5.63919 8.00086 4.22956 9.04019 3.19023C10.0795 2.1509 11.4891 1.56702 12.959 1.56702C14.4288 1.56702 15.8384 2.1509 16.8778 3.19023C17.9171 4.22956 18.501 5.63919 18.501 7.10902H21.275C21.6137 7.12602 21.9361 7.25937 22.1879 7.48655C22.4397 7.71374 22.6054 8.02084 22.657 8.35602ZM15.73 7.10902H10.188C10.188 6.3741 10.4799 5.66929 10.9996 5.14962C11.5192 4.62996 12.2241 4.33802 12.959 4.33802C13.6939 4.33802 14.3987 4.62996 14.9184 5.14962C15.438 5.66929 15.73 6.3741 15.73 7.10902Z" stroke="black" stroke-width="2"/>
</svg>
