<svg width="23" height="23" viewBox="0 0 23 23" fill="none" xmlns="http://www.w3.org/2000/svg">
    <path fill-rule="evenodd" clip-rule="evenodd" d="M20.7826 6.789L22.1676 20.644C22.1784 21.0534 22.0292 21.4509 21.7516 21.752C21.6391 21.8986 21.4908 22.0139 21.3209 22.0867C21.1511 22.1595 20.9654 22.1875 20.7816 22.168H1.38558C1.20181 22.1875 1.0161 22.1595 0.846247 22.0867C0.676397 22.0139 0.528105 21.8986 0.415582 21.752C0.138326 21.4507 -0.0105503 21.0533 0.000582243 20.644L1.38558 6.789C1.43733 6.45318 1.60359 6.14558 1.85619 5.91831C2.10878 5.69105 2.43218 5.5581 2.77158 5.542H5.54258C5.54258 4.07217 6.12647 2.66254 7.1658 1.62321C8.20512 0.583888 9.61475 0 11.0846 0C12.5544 0 13.964 0.583888 15.0034 1.62321C16.0427 2.66254 16.6266 4.07217 16.6266 5.542H19.4006C19.7393 5.559 20.0617 5.69235 20.3135 5.91954C20.5653 6.14672 20.731 6.45382 20.7826 6.789ZM13.8556 5.542H8.31358C8.31358 4.80708 8.60553 4.10227 9.12519 3.58261C9.64485 3.06294 10.3497 2.771 11.0846 2.771C11.8195 2.771 12.5243 3.06294 13.044 3.58261C13.5636 4.10227 13.8556 4.80708 13.8556 5.542Z" fill="black"/>
</svg>
