<?xml version="1.0" encoding="utf-8"?>
<!-- Generator: Adobe Illustrator 19.0.0, SVG Export Plug-In . SVG Version: 6.00 Build 0)  -->
<svg version="1.1" id="Layer_1" xmlns="http://www.w3.org/2000/svg" xmlns:xlink="http://www.w3.org/1999/xlink" x="0px" y="0px"
	 viewBox="0 0 96 96" style="enable-background:new 0 0 96 96;" xml:space="preserve" fill="black">
<g id="XMLID_1_">
	<path id="XMLID_6_" d="M72.9,21.3c-1.1-1.1-2.8-1.1-3.9,0L57.4,32.9c-3-0.9-6.1-1.4-9.4-1.4c-12.8,0-23.9,7.4-29.3,18.3
		c2.4,4.7,5.8,8.8,9.9,11.9l-9.1,9.1c-1.1,1.1-1.1,2.8,0,3.9c0.5,0.5,1.2,0.8,1.9,0.8c0.7,0,1.4-0.3,1.9-0.8l49.5-49.5
		C73.9,24.1,73.9,22.4,72.9,21.3L72.9,21.3z M42.5,38.8c2.4,0,4.5,1.6,5.2,3.7l-7,7c-2.2-0.7-3.7-2.8-3.7-5.2
		C37,41.3,39.5,38.8,42.5,38.8z M25,49.8c2.2-3.5,5.1-6.4,8.6-8.6l0.7-0.4c-0.6,1.6-0.9,3.3-0.9,5c0,3.1,1,6.1,2.7,8.4l-3.5,3.5
		C29.5,55.6,27,52.9,25,49.8z"/>
	<path id="XMLID_7_" d="M62.7,45.8c0-1.6-0.2-3.1-0.7-4.5L43.5,59.8c1.4,0.5,2.9,0.7,4.5,0.7C56.1,60.5,62.7,53.9,62.7,45.8z"/>
	<path id="XMLID_8_" d="M66.2,37.1l-4,4l0.2,0.1c3.4,2.2,6.4,5.1,8.6,8.6c-2.2,3.5-5.1,6.4-8.6,8.6c-4.3,2.8-9.3,4.2-14.5,4.2
		c-2.2,0-4.4-0.3-6.5-0.8l-4.4,4.4c3.4,1.2,7.1,1.9,10.9,1.9c12.8,0,23.9-7.4,29.3-18.3C74.8,44.7,70.9,40.3,66.2,37.1z"/>
</g>
</svg>
