<?xml version="1.0" encoding="utf-8"?>
<!-- Generator: Adobe Illustrator 19.0.0, SVG Export Plug-In . SVG Version: 6.00 Build 0)  -->
<svg version="1.1" id="Layer_1" xmlns="http://www.w3.org/2000/svg" xmlns:xlink="http://www.w3.org/1999/xlink" x="0px" y="0px"
	 viewBox="0 0 96 96" style="enable-background:new 0 0 96 96;" xml:space="preserve" fill="black">
<g id="XMLID_1_">
	<path id="XMLID_6_" d="M48,20.5C28.8,20.5,12.2,31.7,4,48c8.2,16.3,24.8,27.5,44,27.5S83.8,64.3,92,48C83.8,31.7,67.2,20.5,48,20.5
		z M69.7,35.1c5.2,3.3,9.6,7.7,12.8,12.9c-3.3,5.2-7.7,9.6-12.8,12.9c-6.5,4.1-14,6.3-21.7,6.3c-7.7,0-15.2-2.2-21.7-6.3
		c-5.2-3.3-9.6-7.7-12.8-12.9c3.3-5.2,7.7-9.6,12.8-12.9l1-0.6C26.5,36.8,26,39.3,26,42c0,12.1,9.9,22,22,22c12.1,0,22-9.9,22-22
		c0-2.6-0.5-5.2-1.3-7.5L69.7,35.1L69.7,35.1z M48,39.8c0,4.6-3.7,8.3-8.3,8.3s-8.3-3.7-8.3-8.3s3.7-8.3,8.3-8.3S48,35.2,48,39.8z"
		/>
</g>
</svg>
