<svg width="27" height="22" viewBox="0 0 27 22" fill="none" xmlns="http://www.w3.org/2000/svg">
    <path d="M13.5 12.094L2.4532 19.6689L24.5468 19.669L13.5005 12.094C13.5005 12.094 13.5003 12.094 13.5 12.094ZM13.5 10.094C13.8951 10.094 14.2903 10.2108 14.6311 10.4445L25.6779 18.0195C27.2988 19.1309 26.5122 21.6689 24.5468 21.6689H2.4532C0.487868 21.6689 -0.298723 19.1309 1.32214 18.0195L12.369 10.4445C12.7098 10.2108 13.1049 10.094 13.5 10.094Z" fill="black"/>
    <path d="M10.0491 5.43699C10.054 4.95045 10.1556 4.46974 10.348 4.02284C10.5404 3.57594 10.8198 3.17178 11.1699 2.83388C11.52 2.49598 11.9338 2.23108 12.3872 2.05461C12.8407 1.87815 13.3247 1.79364 13.8111 1.80599C14.741 1.89075 15.6109 2.30179 16.2668 2.96633C16.9228 3.63088 17.3224 4.50607 17.3951 5.43699C17.3951 7.11499 13.8111 8.51899 13.8111 8.51899V11.069" stroke="black" stroke-width="2"/>
    <rect y="8" width="8" height="2" fill="black"/>
    <rect x="3" y="13" width="8" height="2" transform="rotate(-90 3 13)" fill="black"/>
</svg>
