<svg width="27" height="25" viewBox="0 0 27 25" fill="none" stroke="#26FBDA" stroke-width="2" xmlns="http://www.w3.org/2000/svg">
    <path d="M23.7348 2.97666C23.1168 2.35053 22.3805 1.85337 21.5688 1.51405C20.7571 1.17473 19.8861 1 19.0063 1C18.1265 1 17.2555 1.17473 16.4438 1.51405C15.6321 1.85337 14.8959 2.35053 14.2778 2.97666L13.3478 3.90666L12.4168 2.97666C11.1626 1.72246 9.46154 1.01785 7.68782 1.01785C5.9141 1.01785 4.21302 1.72246 2.95882 2.97666C1.70461 4.23087 1 5.93195 1 7.70566C1 9.47938 1.70461 11.1805 2.95882 12.4347L13.3478 22.8227L23.7348 12.4347C24.361 11.8166 24.8581 11.0804 25.1974 10.2687C25.5367 9.45697 25.7115 8.58595 25.7115 7.70616C25.7115 6.82638 25.5367 5.95536 25.1974 5.14365C24.8581 4.33194 24.361 3.5957 23.7348 2.97766" />
</svg>
