<svg width="25" height="22" viewBox="0 0 25 22" color="black" xmlns="http://www.w3.org/2000/svg">
    <path fill-rule="evenodd" clip-rule="evenodd" d="M22.7348 1.97666C22.1168 1.35053 21.3805 0.853374 20.5688 0.514052C19.7571 0.174731 18.8861 0 18.0063 0C17.1265 0 16.2555 0.174731 15.4438 0.514052C14.6321 0.853374 13.8959 1.35053 13.2778 1.97666L12.3478 2.90666L11.4168 1.97666C10.1626 0.722456 8.46154 0.0178483 6.68782 0.0178483C4.9141 0.0178484 3.21302 0.722455 1.95882 1.97666C0.704607 3.23087 1.86892e-08 4.93195 0 6.70566C-1.86892e-08 8.47938 0.704607 10.1805 1.95882 11.4347L12.3478 21.8227L22.7348 11.4347C23.361 10.8166 23.8581 10.0804 24.1974 9.26868C24.5367 8.45697 24.7115 7.58595 24.7115 6.70616C24.7115 5.82638 24.5367 4.95536 24.1974 4.14365C23.8581 3.33194 23.361 2.5957 22.7348 1.97766" fill="currentColor"/>
</svg>
