<svg width="24" height="25" viewBox="0 0 24 25" fill="none" xmlns="http://www.w3.org/2000/svg">
    <path d="M11.6795 3.48117L2.06592 12.8992V22.9966L6.77379 22.9821V16.9426C6.77379 15.2052 8.10509 13.7916 9.74147 13.7916H13.6122C15.2485 13.7916 16.5798 15.2052 16.5798 16.9426V22.9809L21.2901 22.9964V12.8916L11.6795 3.48117ZM11.6792 0.940674C11.8431 0.940674 12.0069 1.0054 12.1419 1.13485L23.2901 12.0508V23.8488C23.2901 24.4844 22.8569 24.9998 22.3225 24.9998L15.5475 24.9775C15.2904 24.9775 15.0438 24.8557 14.8622 24.6391C14.6806 24.4224 14.579 24.1288 14.5798 23.8229V16.9426C14.5798 16.307 14.1466 15.7916 13.6122 15.7916H9.74147C9.20703 15.7916 8.77379 16.307 8.77379 16.9426V23.8279C8.7738 24.4613 8.3435 24.9757 7.81095 24.9789L1.03359 24.9998C0.499159 24.9998 0.065918 24.4844 0.065918 23.8488V12.0587L11.2166 1.13485C11.3516 1.0054 11.5154 0.940674 11.6792 0.940674Z" fill="black"/>
</svg>
