<svg width="23" height="25" viewBox="0 0 23 25" fill="none" xmlns="http://www.w3.org/2000/svg">
    <path d="M13.6468 23L16.1885 19.3813H20V4H2V19.3813H11.1059L13.6468 23ZM13.6468 25C13.6467 25 13.6467 25 13.6466 25C12.9951 25 12.3844 24.6825 12.01 24.1493L10.0664 21.3813H2C0.89543 21.3813 0 20.4858 0 19.3813V4C0 2.89543 0.89543 2 2 2H20C21.1046 2 22 2.89543 22 4V19.3813C22 20.4858 21.1046 21.3813 20 21.3813H17.2278L15.2834 24.1495C14.909 24.6826 14.2983 25 13.6468 25Z" fill="#26FBDA"/>
    <path d="M18 10C20.7614 10 23 7.76142 23 5C23 2.23858 20.7614 0 18 0C15.2386 0 13 2.23858 13 5C13 7.76142 15.2386 10 18 10Z" fill="#26FBDA"/>
</svg>
