<svg width="26" height="25" viewBox="0 0 26 25" fill="none" xmlns="http://www.w3.org/2000/svg">
    <path d="M23.0201 23.0001V21.9931C23.0201 21.2248 22.0897 20.2823 20.592 19.5333C18.6147 18.5446 15.8441 17.9776 12.9905 17.9776C10.137 17.9776 7.36634 18.5446 5.3891 19.5333C3.89136 20.2823 2.96094 21.2248 2.96094 21.9931V23.0001H23.0201ZM12.9905 10.9705C15.2039 10.9705 17.0047 9.16982 17.0047 6.95642C17.0047 4.74227 15.2039 2.94092 12.9905 2.94092C10.7764 2.94092 8.97506 4.74227 8.97506 6.95642C8.97506 9.16982 10.7764 10.9705 12.9905 10.9705ZM25.0201 25.0001H0.960938V21.9931C0.960938 18.6842 6.37419 15.9776 12.9905 15.9776C19.6069 15.9776 25.0201 18.6842 25.0201 21.9931V25.0001ZM12.9905 12.9705C9.66816 12.9705 6.97506 10.2774 6.97506 6.95642C6.97506 3.63404 9.66816 0.940918 12.9905 0.940918C16.3116 0.940918 19.0047 3.63404 19.0047 6.95642C19.0047 10.2774 16.3116 12.9705 12.9905 12.9705Z" fill="black"/>
</svg>
