<svg width="42" height="42" viewBox="0 0 42 42" fill="none" xmlns="http://www.w3.org/2000/svg">
    <path d="M21 42C32.598 42 42 32.598 42 21C42 9.40202 32.598 0 21 0C9.40202 0 0 9.40202 0 21C0 32.598 9.40202 42 21 42Z" fill="black"/>
    <path fill-rule="evenodd" clip-rule="evenodd" d="M30.2399 13.0164C29.6897 12.4569 29.0342 12.0126 28.3114 11.7094C27.5887 11.4061 26.8132 11.25 26.0298 11.25C25.2465 11.25 24.471 11.4061 23.7482 11.7094C23.0255 12.0126 22.37 12.4569 21.8197 13.0164L20.9911 13.848L20.1665 13.0164C19.0497 11.8955 17.5349 11.2658 15.9554 11.2658C14.3759 11.2658 12.8612 11.8955 11.7443 13.0164C10.6274 14.1373 10 15.6575 10 17.2426C10 18.8278 10.6274 20.348 11.7443 21.4689L20.9921 30.75L30.2399 21.4689C30.7975 20.9167 31.2401 20.2588 31.5423 19.5335C31.8444 18.8081 32 18.0298 32 17.2437C32 16.4575 31.8444 15.6792 31.5423 14.9538C31.2401 14.2285 30.7975 13.5706 30.2399 13.0184" fill="white"/>
</svg>
