<svg width="42" height="42" viewBox="0 0 42 42" fill="none" xmlns="http://www.w3.org/2000/svg">
    <path d="M21 42C32.598 42 42 32.598 42 21C42 9.40202 32.598 0 21 0C9.40202 0 0 9.40202 0 21C0 32.598 9.40202 42 21 42Z" fill="black"/>
    <path d="M22.2031 20.3056L12.2175 26.7884L32.1887 26.7884L22.2031 20.3056V20.3056ZM22.2031 18.594C22.5603 18.594 22.9174 18.694 23.2255 18.894L33.2111 25.3768C34.6763 26.328 33.9653 28.5 32.1887 28.5H12.2175C10.441 28.5 9.72994 26.328 11.1951 25.3768L21.1807 18.894C21.4888 18.694 21.8459 18.594 22.2031 18.594Z" fill="white"/>
    <path d="M19.0836 14.6085C19.088 14.1921 19.1799 13.7807 19.3538 13.3982C19.5277 13.0158 19.7803 12.6699 20.0968 12.3807C20.4132 12.0915 20.7873 11.8648 21.1972 11.7138C21.607 11.5628 22.0445 11.4904 22.4842 11.501C23.3248 11.5736 24.1111 11.9253 24.7041 12.494C25.297 13.0628 25.6583 13.8118 25.7239 14.6085C25.7239 16.0445 22.4842 17.2461 22.4842 17.2461V19.4284" stroke="white" stroke-width="2"/>
    <rect x="10" y="16.8019" width="7.23148" height="1.71163" fill="white"/>
    <rect x="12.7118" y="21.0811" width="6.84652" height="1.80787" transform="rotate(-90 12.7118 21.0811)" fill="white"/>
</svg>
