<svg width="22" height="23" viewBox="0 0 22 23" fill="none" xmlns="http://www.w3.org/2000/svg">
    <path d="M21.9839 20.954L17.4209 16.3909C18.6915 14.7231 19.3725 12.6806 19.3569 10.584C19.3648 9.31074 19.1198 8.04865 18.6361 6.87086C18.1525 5.69307 17.4398 4.62301 16.5394 3.72275C15.6391 2.82249 14.5689 2.10993 13.3911 1.6264C12.2133 1.14287 10.9511 0.897984 9.67794 0.90595C8.40482 0.898117 7.14281 1.1431 5.96508 1.62669C4.78735 2.11028 3.71735 2.82286 2.8171 3.72311C1.91685 4.62336 1.20427 5.69337 0.720677 6.87109C0.237086 8.04882 -0.00789524 9.31083 -6.20607e-05 10.584C-0.00789524 11.8571 0.237086 13.1191 0.720677 14.2968C1.20427 15.4745 1.91685 16.5445 2.8171 17.4448C3.71735 18.345 4.78735 19.0576 5.96508 19.5412C7.14281 20.0248 8.40482 20.2698 9.67794 20.262C11.7746 20.2775 13.8171 19.5965 15.4849 18.326L20.0479 22.889L21.9839 20.954ZM2.76494 10.584C2.75598 9.67363 2.92868 8.77067 3.27292 7.9279C3.61716 7.08514 4.12603 6.31949 4.76975 5.67577C5.41348 5.03204 6.17912 4.52317 7.02189 4.17893C7.86466 3.83469 8.76762 3.662 9.67794 3.67095C10.5883 3.662 11.4912 3.83469 12.334 4.17893C13.1768 4.52317 13.9424 5.03204 14.5861 5.67577C15.2298 6.31949 15.7387 7.08514 16.083 7.9279C16.4272 8.77067 16.5999 9.67363 16.5909 10.584C16.5999 11.4943 16.4272 12.3972 16.083 13.24C15.7387 14.0828 15.2298 14.8484 14.5861 15.4921C13.9424 16.1359 13.1768 16.6447 12.334 16.989C11.4912 17.3332 10.5883 17.5059 9.67794 17.497C8.76762 17.5059 7.86466 17.3332 7.02189 16.989C6.17912 16.6447 5.41348 16.1359 4.76975 15.4921C4.12603 14.8484 3.61716 14.0828 3.27292 13.24C2.92868 12.3972 2.75598 11.4943 2.76494 10.584V10.584Z" fill="#26FBDA"/>
</svg>
